<?xml version="1.0" standalone="no"?><!DOCTYPE svg PUBLIC "-//W3C//DTD SVG 1.1//EN" "http://www.w3.org/Graphics/SVG/1.1/DTD/svg11.dtd"><svg t="1715772821206" class="icon" viewBox="0 0 1032 1024" version="1.1" xmlns="http://www.w3.org/2000/svg" p-id="1950" xmlns:xlink="http://www.w3.org/1999/xlink" width="201.5625" height="200"><path d="M1023.121 55.331c0 11.134-9.019 20.152-20.188 20.152H332.809c-11.102 0-20.12-9.019-20.12-20.152V29.035c0-11.134 9.019-20.155 20.12-20.155h670.124c11.17 0 20.188 9.021 20.188 20.155v26.296z" fill="#D2D5DE" p-id="1951"></path><path d="M1002.933 84.364H332.809c-15.993 0-29.001-13.009-29.001-29.033V29.035C303.808 13.009 316.815 0 332.809 0h670.124c16.024 0 29.069 13.009 29.069 29.035v26.296c0 16.024-13.045 29.033-29.069 29.033zM332.809 17.761c-6.21 0-11.24 5.064-11.24 11.274v26.296c0 6.208 5.03 11.272 11.24 11.272h670.124c6.243 0 11.308-5.064 11.308-11.272V29.035c0-6.21-5.064-11.274-11.308-11.274H332.809z" fill="#040000" p-id="1952"></path><path d="M960.958 209.974V77.877H374.85v132.096c0 129.6 84.226 239.424 200.919 278.068-116.693 38.646-200.919 148.4-200.919 278.069v132.096h586.108V766.11c0-129.669-84.295-239.424-200.988-278.068 116.693-38.645 200.988-148.469 200.988-278.068z" fill="#FFFFFF" p-id="1953"></path><path d="M960.958 907.087H374.85c-4.891 0-8.88-3.99-8.88-8.881V766.11c0-122.313 73.23-231.203 184.547-278.068C439.2 441.177 365.97 332.287 365.97 209.974V77.877c0-4.891 3.99-8.88 8.88-8.88h586.108c4.891 0 8.881 3.99 8.881 8.88v132.096c0 122.313-73.264 231.203-184.617 278.068 111.354 46.865 184.617 155.755 184.617 278.068v132.096c0 4.892-3.99 8.882-8.881 8.882zM383.73 889.326h568.348V766.11c0-122.661-78.328-231.029-194.884-269.638-3.643-1.215-6.105-4.614-6.105-8.43s2.463-7.215 6.105-8.43c116.556-38.609 194.884-146.977 194.884-269.638V86.758H383.73v123.216c0 122.696 78.294 231.065 194.814 269.638 3.643 1.215 6.105 4.614 6.105 8.43s-2.463 7.215-6.105 8.43C462.025 535.046 383.73 643.414 383.73 766.11v123.216z" fill="#222323" p-id="1954"></path><path d="M1023.121 944.655c0 11.136-9.019 20.154-20.188 20.154H332.809c-11.102 0-20.12-9.019-20.12-20.154v-26.329c0-11.101 9.019-20.12 20.12-20.12h670.124c11.17 0 20.188 9.02 20.188 20.12v26.329z" fill="#D2D5DE" p-id="1955"></path><path d="M1002.933 973.69H332.809c-15.993 0-29.001-13.009-29.001-29.035v-26.329c0-15.991 13.008-29 29.001-29h670.124c16.024 0 29.069 13.009 29.069 29v26.329c0 16.027-13.045 29.035-29.069 29.035z m-670.124-66.603c-6.21 0-11.24 5.029-11.24 11.239v26.329c0 6.21 5.03 11.274 11.24 11.274h670.124c6.243 0 11.308-5.064 11.308-11.274v-26.329c0-6.21-5.064-11.239-11.308-11.239H332.809z" fill="#040000" p-id="1956"></path><path d="M445.894 774.99v75.484h444.021V774.99c0-112.809-84.226-205.776-193.149-219.929V420.155c70.695-9.192 130.569-51.929 164.149-111.386H474.824c33.649 59.457 93.454 102.194 164.219 111.386v134.907C530.05 569.214 445.894 662.182 445.894 774.99z" fill="#EA5150" p-id="1957"></path><path d="M889.915 859.354H445.894c-4.891 0-8.88-3.989-8.88-8.88V774.99c0-112.913 82.492-209.418 193.149-227.596V427.823c-68.025-11.274-128.557-53.699-163.073-114.683-1.561-2.74-1.527-6.105 0.069-8.847a8.856 8.856 0 0 1 7.666-4.405h386.091a8.857 8.857 0 0 1 7.666 4.405c1.596 2.741 1.631 6.107 0.069 8.847-34.445 60.948-94.943 103.409-163.005 114.683v119.572c110.658 18.213 193.149 114.683 193.149 227.596v75.484c0 4.89-3.989 8.879-8.88 8.879z m-435.141-17.76h426.26V774.99c0-106.634-79.716-197.382-185.412-211.117a8.876 8.876 0 0 1-7.737-8.812V420.155a8.875 8.875 0 0 1 7.737-8.811c60.566-7.873 115.374-42.494 149.44-93.695h-354.35c34.1 51.201 88.943 85.822 149.476 93.695a8.873 8.873 0 0 1 7.734 8.811v134.907a8.874 8.874 0 0 1-7.734 8.812C534.49 577.608 454.774 668.356 454.774 774.99v66.604z" fill="#040000" p-id="1958"></path><path d="M621.63 717.232v-66.604h-61.332c-5.826-43.395-22.894-83.149-48.218-116.415l43.363-43.396-47.108-47.073-43.361 43.395c-33.232-25.322-72.987-42.389-116.417-48.216v-61.332h-66.603v61.332c-43.432 5.827-83.185 22.894-116.417 48.216l-43.361-43.361-47.108 47.074 43.362 43.395c-25.323 33.232-42.321 72.987-48.218 116.418H8.88v66.567h61.331c5.828 43.396 22.895 83.151 48.218 116.417l-43.362 43.397 47.108 47.072 43.361-43.396c33.232 25.357 72.986 42.391 116.417 48.287v61.331h66.603v-61.33c43.43-5.896 83.185-22.93 116.417-48.252l43.361 43.396 47.108-47.107-43.363-43.397c25.324-33.266 42.392-73.021 48.218-116.417h61.333z" fill="#D2D5DE" p-id="1959"></path><path d="M348.557 999.222h-66.603c-4.892 0-8.88-3.99-8.88-8.881v-53.699c-38.437-6.417-75.034-21.577-106.669-44.229l-37.95 37.985c-3.33 3.33-9.227 3.33-12.557 0L68.79 883.325a8.878 8.878 0 0 1 0-12.558l37.95-37.985c-22.652-31.741-37.812-68.337-44.159-106.669H8.88c-4.892 0-8.88-3.988-8.88-8.881v-66.567c0-4.891 3.989-8.881 8.88-8.881h53.7c6.417-38.435 21.576-75.033 44.159-106.67l-37.95-37.984a8.875 8.875 0 0 1 0-12.556l47.108-47.075c3.503-3.502 9.122-3.433 12.557 0l37.95 37.951c31.706-22.653 68.303-37.811 106.669-44.159v-53.699c0-4.891 3.989-8.88 8.88-8.88h66.603c4.891 0 8.88 3.99 8.88 8.88v53.699c38.366 6.348 74.929 21.506 106.67 44.159l37.949-37.985c3.33-3.33 9.226-3.33 12.556 0l47.108 47.073a8.876 8.876 0 0 1 0 12.558l-37.949 37.985c22.651 31.739 37.811 68.337 44.159 106.668h53.699c4.891 0 8.88 3.989 8.88 8.88v66.604c0 4.893-3.989 8.881-8.88 8.881h-53.699c-6.349 38.332-21.508 74.928-44.159 106.669l37.949 37.985a8.876 8.876 0 0 1 0 12.558l-47.108 47.106a8.87 8.87 0 0 1-12.556 0l-37.949-37.984c-31.672 22.617-68.269 37.777-106.67 44.194v53.699c0.001 4.89-3.989 8.881-8.879 8.881z m-57.723-17.761h48.842V929.01c0-4.44 3.294-8.186 7.701-8.812 40.724-5.515 79.542-21.61 112.218-46.518a8.844 8.844 0 0 1 11.656 0.798l37.084 37.118 34.55-34.55-37.082-37.118a8.882 8.882 0 0 1-0.798-11.655c24.977-32.782 41.036-71.599 46.482-112.221 0.59-4.404 4.371-7.701 8.811-7.701h52.451V659.51h-52.451c-4.439 0-8.221-3.295-8.811-7.701-5.446-40.62-21.506-79.438-46.482-112.219a8.882 8.882 0 0 1 0.798-11.655l37.082-37.117-34.55-34.517-37.084 37.118c-3.156 3.156-8.083 3.468-11.656 0.798-32.747-24.976-71.563-41.036-112.218-46.484-4.407-0.588-7.701-4.371-7.701-8.809v-52.451h-48.842v52.451c0 4.438-3.296 8.221-7.701 8.809-40.655 5.448-79.473 21.508-112.219 46.484a8.888 8.888 0 0 1-11.656-0.798l-37.083-37.082-34.55 34.516 37.082 37.116a8.883 8.883 0 0 1 0.798 11.655c-24.871 32.644-40.967 71.46-46.483 112.22-0.625 4.405-4.371 7.701-8.811 7.701h-52.45v48.807h52.45c4.44 0 8.222 3.297 8.811 7.701 5.446 40.622 21.507 79.438 46.483 112.221a8.883 8.883 0 0 1-0.798 11.655l-37.082 37.118 34.55 34.514 37.083-37.115a8.807 8.807 0 0 1 11.656-0.798c32.676 24.94 71.459 41.036 112.219 46.551 4.405 0.626 7.701 4.371 7.701 8.812v52.45z" fill="#040000" p-id="1960"></path><path d="M505.906 683.967c0 105.28-85.334 190.65-190.651 190.65-105.316 0-190.651-85.37-190.651-190.65 0-105.317 85.335-190.687 190.651-190.687 105.317 0 190.651 85.369 190.651 190.687z" fill="#FFFFFF" p-id="1961"></path><path d="M315.255 883.497c-110.034 0-199.532-89.497-199.532-199.53 0-110.034 89.498-199.567 199.532-199.567s199.531 89.533 199.531 199.567c0 110.033-89.497 199.53-199.531 199.53z m0-381.336c-100.217 0-181.771 81.553-181.771 181.806 0 100.217 81.554 181.77 181.771 181.77s181.771-81.553 181.771-181.77c-0.001-100.253-81.554-181.806-181.771-181.806z" fill="#040000" p-id="1962"></path><path d="M305.265 552.98h13.32v130.986h-13.32zM321.916 686.15h130.986v13.356H321.916z" fill="#040000" p-id="1963"></path><path d="M348.209 692.847c0 20.015-16.234 36.251-36.284 36.251-20.05 0-36.285-16.236-36.285-36.251 0-20.05 16.235-36.284 36.285-36.284 20.05 0 36.284 16.234 36.284 36.284z" fill="#35AE72" p-id="1964"></path></svg>