<?xml version="1.0" standalone="no"?><!DOCTYPE svg PUBLIC "-//W3C//DTD SVG 1.1//EN" "http://www.w3.org/Graphics/SVG/1.1/DTD/svg11.dtd"><svg t="1715773992046" class="icon" viewBox="0 0 1024 1024" version="1.1" xmlns="http://www.w3.org/2000/svg" p-id="3341" xmlns:xlink="http://www.w3.org/1999/xlink" width="200" height="200"><path d="M288 544H49.104c-0.608-1.536-1.104-1.136-1.104-0.624V976h304V594.864c0-28.944-28.656-52.4-64-50.864z" fill="#2BB0AF" p-id="3342"></path><path d="M528 528c0-88-72-160-160-160H208C120 368 48 440 48 528v15.376c0-0.512 0.496-0.912 1.104 0.624H288c35.344-1.536 64 21.92 64 50.864V976h64V672a95.52 95.52 0 0 0 12.944 48H432l61.584 46.192c5.968 1.168 12.112 1.808 18.416 1.808h200a56 56 0 1 0 0-112H528v-128z" fill="#EFC95B" p-id="3343"></path><path d="M912 80H288c79.52 0 144 64.528 144 144a143.312 143.312 0 0 1-36.496 95.552A143.52 143.52 0 0 1 288 368h80c88 0 160 72 160 160v128h384a64 64 0 0 0 64-64V144a64 64 0 0 0-64-64z" fill="#E7E7E7" p-id="3344"></path><path d="M395.504 319.552A143.312 143.312 0 0 0 432 224c0-79.472-64.48-144-144-144s-144 64.528-144 144 64.48 144 144 144a143.52 143.52 0 0 0 107.504-48.448z" fill="#EFC95B" p-id="3345"></path><path d="M496 768l-2.416-1.808L432 720h-16v272h528v-128h32v-96H512z" fill="#E7E7E7" p-id="3346"></path><path d="M592 576h32v32h-32zM576 400h80v32h-80zM704 400h80v32h-80zM832 400h80v32h-80zM811.312 132.688l-22.624 22.624L873.376 240l-84.688 84.688 22.624 22.624 96-96a15.984 15.984 0 0 0 0-22.624l-96-96zM619.312 324.688L534.624 240l84.688-84.688-22.624-22.624-96 96a15.984 15.984 0 0 0 0 22.624l96 96 22.624-22.624zM641.952 328.176l96-175.872 28.08 15.328-96 175.888z" fill="#383838" p-id="3347"></path><path d="M912 64H288C199.776 64 128 135.776 128 224c0 52.816 25.824 99.584 65.392 128.736C103.168 360.208 32 435.888 32 528v449.536h0.304A15.856 15.856 0 0 0 48 992h368a16 16 0 0 0 16-16V750.32A111.68 111.68 0 0 0 512 784h448v64h-64v32h32v112h32v-112h16a16 16 0 0 0 16-16v-96a16 16 0 0 0-16-16H771.808c7.68-11.456 12.192-25.2 12.192-40s-4.512-28.544-12.192-40H912c44.112 0 80-35.888 80-80V144c0-44.112-35.888-80-80-80zM160 224c0-70.576 57.424-128 128-128s128 57.424 128 128a127.248 127.248 0 0 1-27.376 78.848A64 64 0 0 1 336 240h-32a96.128 96.128 0 0 0 58.096 88.176A127.056 127.056 0 0 1 288 352c-70.576 0-128-57.424-128-128zM64 560l224.688-0.016c14.592-0.608 28.048 4.064 37.216 12.832 4.608 4.416 10.096 11.824 10.096 22.048V960H64V560z m688 152c0 22.048-17.952 40-40 40H512c-44.112 0-80-35.888-80-80v-144h-32v432h-32V594.864c0-16.784-7.088-32.832-19.968-45.152-15.44-14.8-37.664-22.656-60.032-21.712H64c0-79.392 64.608-144 144-144h160c79.392 0 144 64.608 144 144v128a16 16 0 0 0 16 16h184c22.048 0 40 17.952 40 40zM960 592c0 26.464-21.536 48-48 48H544v-96h416v48z m0-80H544v16c0-92.112-71.168-167.792-161.392-175.264C422.176 323.584 448 276.816 448 224c0-52.368-25.408-98.8-64.4-128H912c26.464 0 48 21.536 48 48v368z" fill="#383838" p-id="3348"></path></svg>