<?xml version="1.0" standalone="no"?><!DOCTYPE svg PUBLIC "-//W3C//DTD SVG 1.1//EN" "http://www.w3.org/Graphics/SVG/1.1/DTD/svg11.dtd"><svg t="1715869851401" class="icon" viewBox="0 0 1024 1024" version="1.1" xmlns="http://www.w3.org/2000/svg" p-id="6882" xmlns:xlink="http://www.w3.org/1999/xlink" width="13" height="13"><path d="M789.02303 839.323152h103.563637v117.542787h-103.563637z" fill="#459FD8" p-id="6883"></path><path d="M1010.238061 871.051636v127.767273H670.487273v-127.767273c0-17.516606 14.211879-31.728485 31.650909-31.728484h98.924606l39.346424 67.785696 39.253333-67.801212h98.940122c17.532121 0.015515 31.650909 14.227394 31.650909 31.744zM928.116364 681.363394c0 48.469333-39.284364 117.76-87.753697 117.76-48.453818 0-87.738182-69.290667-87.738182-117.76a87.753697 87.753697 0 1 1 175.476363 0zM183.125333 548.708848a140.25697 140.25697 0 0 1 0-280.544969c13.141333 0 25.755152 1.892848 37.701819 5.12a207.018667 207.018667 0 0 1-4.608-44.016485c0-117.573818 95.402667-212.96097 212.976484-212.96097 92.997818 0 172.171636 59.733333 201.014303 143.003152a140.25697 140.25697 0 0 1 228.662303 108.869818h2.901334a140.25697 140.25697 0 0 1 0 280.54497H183.125333z" fill="#E2E3E7" p-id="6884"></path><path d="M198.500848 822.954667m-176.981333 0a176.981333 176.981333 0 1 0 353.962667 0 176.981333 176.981333 0 1 0-353.962667 0Z" fill="#E2E3E7" p-id="6885"></path><path d="M198.500848 822.954667m-23.412363 0a23.412364 23.412364 0 1 0 46.824727 0 23.412364 23.412364 0 1 0-46.824727 0Z" fill="#459FD8" p-id="6886"></path><path d="M198.500848 735.71297v63.813818M221.928727 822.954667h45.862788" fill="#FFFFFF" p-id="6887"></path><path d="M621.149091 736.612848v-2.839272c0-17.113212-13.917091-31.030303-31.030303-31.030303h-135.338667c-17.113212 0-31.030303 13.917091-31.030303 31.030303 0.310303 1.551515-1.923879 15.080727 10.72097 26.127515-6.516364 5.678545-10.736485 13.963636-10.736485 23.272727v2.839273c0 9.309091 4.220121 17.594182 10.736485 23.272727-6.516364 5.709576-10.736485 13.963636-10.736485 23.288243v2.839272c0 17.113212 13.932606 31.030303 31.045818 31.030303h6.206061c3.878788 30.626909 29.789091 54.489212 61.44 54.489212 31.666424 0 57.592242-23.862303 61.47103-54.489212h6.206061a31.076848 31.076848 0 0 0 31.045818-31.030303v-2.839272c0-9.309091-4.204606-17.578667-10.736485-23.272728 6.516364-5.694061 10.736485-13.963636 10.736485-23.288242v-2.839273c0-9.309091-4.204606-17.594182-10.736485-23.272727 6.516364-5.709576 10.736485-13.963636 10.736485-23.288243z m-98.707394 168.804849a46.685091 46.685091 0 0 1-45.924849-38.974061h91.865213a46.700606 46.700606 0 0 1-45.940364 38.974061z m83.192242-72.843636v2.839272c0 8.548848-6.981818 15.515152-15.515151 15.515152h-135.338667c-8.548848 0-15.515152-6.966303-15.515151-15.515152v-2.839272c0-8.564364 6.966303-15.515152 15.515151-15.515152h135.323152c8.564364 0 15.530667 6.950788 15.530666 15.515152z m0-49.400243v2.839273c0 8.548848-6.981818 15.515152-15.515151 15.515151h-135.338667c-8.548848 0-15.515152-6.966303-15.515151-15.515151v-2.839273c0-8.564364 6.966303-15.515152 15.515151-15.515151h135.323152c8.564364 0 15.530667 6.950788 15.530666 15.515151z m-150.853818-31.030303c-8.548848 0-15.515152-6.981818-15.515151-15.530667v-2.839272c0-8.564364 6.966303-15.515152 15.515151-15.515152h135.323152c8.564364 0 15.530667 6.950788 15.530666 15.515152v2.839272c0 8.548848-6.981818 15.515152-15.515151 15.515152h-135.338667zM206.258424 638.603636v-32.519757h25.786182a7.757576 7.757576 0 1 0 0-15.515152h-67.072a7.757576 7.757576 0 1 0 0 15.515152h25.755152v32.519757C92.501333 642.715152 13.777455 723.704242 13.777455 822.954667c0 101.85697 82.866424 184.738909 184.738909 184.738909s184.754424-82.881939 184.754424-184.738909c0-99.250424-78.723879-180.239515-176.996849-184.351031z m83.39394 326.702546l-10.798546-18.711273a7.757576 7.757576 0 1 0-13.436121 7.757576l10.829576 18.757818a167.936 167.936 0 0 1-69.988849 18.680242v-21.581575a7.757576 7.757576 0 1 0-15.515151 0v21.56606a167.936 167.936 0 0 1-69.973334-18.664727l10.814061-18.757818a7.757576 7.757576 0 1 0-13.420606-7.757576l-10.798546 18.726788a170.356364 170.356364 0 0 1-51.215515-51.2l18.711273-10.829576a7.757576 7.757576 0 1 0-7.757576-13.436121l-18.757818 10.829576a167.90497 167.90497 0 0 1-18.680242-69.973334h21.597091a7.757576 7.757576 0 1 0 0-15.515151H29.66497c1.148121-25.134545 7.695515-48.857212 18.680242-69.973333l18.757818 10.81406a7.757576 7.757576 0 1 0 7.757576-13.436121l-18.711273-10.798545a170.309818 170.309818 0 0 1 51.2-51.215516l10.814061 18.726788a7.757576 7.757576 0 1 0 13.420606-7.757576l-10.829576-18.773333a167.90497 167.90497 0 0 1 69.973334-18.664727v21.581576a7.757576 7.757576 0 1 0 15.515151 0V654.118788c25.150061 1.148121 48.872727 7.695515 70.004364 18.680242l-10.829576 18.757818a7.757576 7.757576 0 1 0 13.436121 7.757576l10.798546-18.726788a170.356364 170.356364 0 0 1 51.2 51.2l-18.695758 10.814061a7.757576 7.757576 0 1 0 7.757576 13.436121l18.757818-10.81406a167.90497 167.90497 0 0 1 18.680242 69.973333h-21.59709a7.757576 7.757576 0 1 0 0 15.515151h21.59709a167.90497 167.90497 0 0 1-18.695757 69.973334l-18.742303-10.829576a7.757576 7.757576 0 0 0-7.757576 13.436121l18.711273 10.814061a170.356364 170.356364 0 0 1-51.215515 51.2z" fill="#2F1854" p-id="6888"></path><path d="M267.791515 815.197091h-39.206788a31.138909 31.138909 0 0 0-22.341818-22.341818v-57.157818a7.757576 7.757576 0 1 0-15.515151 0v57.173333a31.154424 31.154424 0 0 0-23.396849 30.083879c0 17.190788 13.979152 31.185455 31.169939 31.185454 14.506667 0 26.608485-10.007273 30.083879-23.427879h39.206788a7.757576 7.757576 0 1 0 0-15.515151z m-69.290667 23.427879a15.670303 15.670303 0 1 1 0.031031-31.340606 15.670303 15.670303 0 0 1-0.031031 31.340606z" fill="#2F1854" p-id="6889"></path><path d="M739.84 391.292121c11.74497 70.050909-9.588364 135.602424-50.982788 183.109818-33.093818 37.981091-52.813576 85.721212-52.813576 136.083394H408.839758v-0.03103c0-50.113939-19.269818-97.82303-52.317091-135.493818a219.942788 219.942788 0 0 1-54.675394-145.485576c0-136.22303 123.609212-243.293091 264.73503-216.017454 88.126061 17.051152 158.409697 89.305212 173.257697 177.850181z" fill="#F89C1C" p-id="6890"></path><path d="M626.036364 460.675879c-2.373818 7.602424-5.709576 14.894545-9.821091 21.721212l20.604121 28.361697-35.033212 34.87806-29.63394-21.56606c-6.981818 3.646061-14.584242 6.671515-22.528 8.409212l-5.383757 34.707394H494.778182l-5.694061-36.305455a99.188364 99.188364 0 0 1-21.721212-9.821091l-28.377212 20.619637-35.033212-35.033212 21.721212-29.649455a93.866667 93.866667 0 0 1-8.409212-22.49697l-34.707394-5.399272v-49.462303l36.305454-5.709576c2.373818-7.602424 5.694061-14.894545 9.821091-21.721212l-20.604121-28.361697 35.033212-35.033212 29.63394 21.56606c7.13697-3.661576 14.584242-6.671515 22.512485-8.409212l5.383757-34.552242h49.462303l5.709576 36.134788c7.757576 2.373818 15.049697 5.709576 21.876364 9.991757l28.22206-20.619636 35.017697 35.033212-21.721212 29.804606c3.816727 6.981818 6.671515 14.429091 8.409212 22.186667l34.722909 5.554424v49.462303l-36.305454 5.709576z" fill="#FFFFFF" p-id="6891"></path><path d="M522.441697 504.723394a77.529212 77.529212 0 0 0 77.420606-77.420606c0.015515-42.697697-34.722909-77.420606-77.420606-77.420606a77.513697 77.513697 0 0 0-77.420606 77.420606 77.513697 77.513697 0 0 0 77.420606 77.420606z m0-139.326061a61.98303 61.98303 0 0 1 61.905455 61.905455c0.015515 34.133333-27.756606 61.905455-61.905455 61.905454-34.133333 0-61.905455-27.772121-61.905455-61.905454s27.772121-61.905455 61.905455-61.905455z" fill="#2F1854" p-id="6892"></path></svg>